# xmcd CD database file
#
# Track frame offsets:
#	150
#	19789
#	39788
#	65713
#	84950
#	98359
#	123471
#	140265
#	164010
#	181474
#	195748
#	219567
#
# Disc length: 3201 seconds
#
# Revision: 0
# Processed by: cddbd v1.5.2PL0 Copyright (c) Steve Scherf et al.
# Submitted via: CDex 1.51
#
DISCID=9e0c7f0c
DTITLE=Soul Station - Nothing But Swing
DYEAR=2003
DGENRE=Jazz
TTITLE0=Beautiful Friendship
TTITLE1=Morning Blues
TTITLE2=Waltz For R.B.
TTITLE3=Cabin In The Sky
TTITLE4=Sick Chick
TTITLE5=Soul Station
TTITLE6=Star Gate
TTITLE7=I Only Trust My Heart
TTITLE8=Blues For Anette
TTITLE9=Sunshine Bossa
TTITLE10=Afternoon In Cracow
TTITLE11=I Got It Bad
EXTD=YEAR: 2003
EXTT0=
EXTT1=
EXTT2=
EXTT3=
EXTT4=
EXTT5=
EXTT6=
EXTT7=
EXTT8=
EXTT9=
EXTT10=
EXTT11=
PLAYORDER=
